<svg width="24" height="24" viewBox="0 0 24 24" fill="none" xmlns="http://www.w3.org/2000/svg">
<path d="M15.2472 9.66836C17.5254 7.39976 19.791 5.11256 22.0776 2.85596C22.6944 3.49556 23.3394 4.10876 23.9562 4.74896L24 4.76276V4.81976C23.9082 4.79636 23.8842 4.93496 23.8134 4.97276C18.4122 10.3614 13.0212 15.7602 7.6182 21.1464C5.1114 18.6246 2.586 16.1208 0.075 13.6032C0.0564 13.5894 0.0186 13.5624 0 13.5486V13.5192C0.648 12.8904 1.29 12.2472 1.9212 11.5992C3.8316 13.4796 5.7132 15.3972 7.6218 17.277C10.1712 14.754 12.7038 12.2022 15.2472 9.66836Z" fill="#00B488"/>
</svg>
