<svg width="24" height="24" viewBox="0 0 24 24" fill="none" xmlns="http://www.w3.org/2000/svg">
<path d="M0 1.69986C0.0054 1.25466 0.3894 0.859264 0.8376 0.866464C1.068 0.835864 1.2738 0.963064 1.476 1.05186C8.7114 4.39206 15.9468 7.73226 23.1822 11.0725C23.3808 11.1673 23.5992 11.2441 23.7546 11.4061C24.0162 11.6689 24.0672 12.1069 23.8806 12.4255C23.7558 12.6643 23.5008 12.7813 23.2668 12.8863C15.9324 16.2715 8.598 19.6591 1.263 23.0437C1.0332 23.1607 0.7506 23.1763 0.5136 23.0689C0.2184 22.9441 0.027 22.6489 0 22.3339V22.2685C0.03 22.0951 0.0552 21.9139 0.1728 21.7735C2.613 18.5143 5.058 15.2587 7.4988 11.9995C5.0604 8.74026 2.6142 5.48646 0.1752 2.22786C0.0528 2.08266 0.0276 1.89486 0 1.71426V1.69986Z" fill="#2C42BF"/>
</svg>
