<svg width="92" height="19" viewBox="0 0 92 19" fill="none" xmlns="http://www.w3.org/2000/svg">
<path d="M16.223 6.30799L11.6872 5.64879L9.65952 1.53815C9.60414 1.4256 9.51303 1.33449 9.40049 1.27911C9.11823 1.13977 8.77522 1.25589 8.63409 1.53815L6.60646 5.64879L2.07065 6.30799C1.9456 6.32586 1.83126 6.38481 1.74373 6.47413C1.6379 6.5829 1.57958 6.72924 1.58159 6.88099C1.5836 7.03273 1.64577 7.17747 1.75444 7.2834L5.03617 10.4829L4.26085 15.0009C4.24266 15.106 4.25429 15.2141 4.29442 15.3129C4.33454 15.4117 4.40155 15.4973 4.48785 15.56C4.57415 15.6227 4.67628 15.6599 4.78267 15.6675C4.88906 15.6751 4.99544 15.6527 5.08976 15.6029L9.14681 13.4699L13.2039 15.6029C13.3146 15.6619 13.4432 15.6815 13.5665 15.6601C13.8774 15.6065 14.0864 15.3117 14.0328 15.0009L13.2574 10.4829L16.5392 7.2834C16.6285 7.19586 16.6874 7.08153 16.7053 6.95648C16.7535 6.64385 16.5356 6.35444 16.223 6.30799Z" fill="#2C42BF"/>
<path d="M34.5164 6.30799L29.9806 5.64879L27.953 1.53815C27.8976 1.4256 27.8065 1.33449 27.6939 1.27911C27.4117 1.13977 27.0687 1.25589 26.9276 1.53815L24.8999 5.64879L20.3641 6.30799C20.2391 6.32586 20.1247 6.38481 20.0372 6.47413C19.9314 6.5829 19.873 6.72924 19.8751 6.88099C19.8771 7.03273 19.9392 7.17747 20.0479 7.2834L23.3296 10.4829L22.5543 15.0009C22.5361 15.106 22.5478 15.2141 22.5879 15.3129C22.628 15.4117 22.695 15.4973 22.7813 15.56C22.8676 15.6227 22.9697 15.6599 23.0761 15.6675C23.1825 15.6751 23.2889 15.6527 23.3832 15.6029L27.4403 13.4699L31.4973 15.6029C31.6081 15.6619 31.7367 15.6815 31.86 15.6601C32.1708 15.6065 32.3798 15.3117 32.3262 15.0009L31.5509 10.4829L34.8326 7.2834C34.922 7.19586 34.9809 7.08153 34.9988 6.95648C35.047 6.64385 34.8291 6.35444 34.5164 6.30799Z" fill="#2C42BF"/>
<path d="M52.8099 6.30799L48.2741 5.64879L46.2464 1.53815C46.1911 1.4256 46.0999 1.33449 45.9874 1.27911C45.7051 1.13977 45.3621 1.25589 45.221 1.53815L43.1934 5.64879L38.6576 6.30799C38.5325 6.32586 38.4182 6.38481 38.3306 6.47413C38.2248 6.5829 38.1665 6.72924 38.1685 6.88099C38.1705 7.03273 38.2327 7.17747 38.3414 7.2834L41.6231 10.4829L40.8478 15.0009C40.8296 15.106 40.8412 15.2141 40.8813 15.3129C40.9215 15.4117 40.9885 15.4973 41.0748 15.56C41.1611 15.6227 41.2632 15.6599 41.3696 15.6675C41.476 15.6751 41.5824 15.6527 41.6767 15.6029L45.7337 13.4699L49.7908 15.6029C49.9015 15.6619 50.0302 15.6815 50.1534 15.6601C50.4643 15.6065 50.6733 15.3117 50.6197 15.0009L49.8444 10.4829L53.1261 7.2834C53.2154 7.19586 53.2744 7.08153 53.2922 6.95648C53.3405 6.64385 53.1225 6.35444 52.8099 6.30799Z" fill="#2C42BF"/>
<path d="M71.1029 6.30799L66.567 5.64879L64.5394 1.53815C64.484 1.4256 64.3929 1.33449 64.2804 1.27911C63.9981 1.13977 63.6551 1.25589 63.514 1.53815L61.4863 5.64879L56.9505 6.30799C56.8255 6.32586 56.7111 6.38481 56.6236 6.47413C56.5178 6.5829 56.4595 6.72924 56.4615 6.88099C56.4635 7.03273 56.5257 7.17747 56.6343 7.2834L59.9161 10.4829L59.1407 15.0009C59.1225 15.106 59.1342 15.2141 59.1743 15.3129C59.2144 15.4117 59.2814 15.4973 59.3677 15.56C59.454 15.6227 59.5562 15.6599 59.6626 15.6675C59.7689 15.6751 59.8753 15.6527 59.9696 15.6029L64.0267 13.4699L68.0837 15.6029C68.1945 15.6619 68.3231 15.6815 68.4464 15.6601C68.7572 15.6065 68.9662 15.3117 68.9127 15.0009L68.1373 10.4829L71.4191 7.2834C71.5084 7.19586 71.5673 7.08153 71.5852 6.95648C71.6334 6.64385 71.4155 6.35444 71.1029 6.30799Z" fill="#2C42BF"/>
<path d="M89.3963 6.30799L84.8605 5.64879L82.8329 1.53815C82.7775 1.4256 82.6864 1.33449 82.5738 1.27911C82.2916 1.13977 81.9486 1.25589 81.8074 1.53815L79.7798 5.64879L75.244 6.30799C75.1189 6.32586 75.0046 6.38481 74.9171 6.47413C74.8112 6.5829 74.7529 6.72924 74.7549 6.88099C74.7569 7.03273 74.8191 7.17747 74.9278 7.2834L78.2095 10.4829L77.4342 15.0009C77.416 15.106 77.4276 15.2141 77.4678 15.3129C77.5079 15.4117 77.5749 15.4973 77.6612 15.56C77.7475 15.6227 77.8496 15.6599 77.956 15.6675C78.0624 15.6751 78.1688 15.6527 78.2631 15.6029L82.3201 13.4699L86.3772 15.6029C86.488 15.6619 86.6166 15.6815 86.7398 15.6601C87.0507 15.6065 87.2597 15.3117 87.2061 15.0009L86.4308 10.4829L89.7125 7.2834C89.8018 7.19586 89.8608 7.08153 89.8787 6.95648C89.9269 6.64385 89.7089 6.35444 89.3963 6.30799Z" fill="#2C42BF"/>
</svg>
