<svg width="0" height="0" class="hidden">
  <symbol  xmlns="http://www.w3.org/2000/svg" viewBox="0 0 41 80" id="facebook">
    <path d="M29.3 0h.494c3.438.044 6.876.176 10.294.552.004 4.244.004 8.488.002 12.73-2.682.006-5.364-.024-8.044.016-1.692.08-3.552.46-4.73 1.78-1.14 1.276-1.35 3.072-1.384 4.712-.01 3.406-.008 6.81-.002 10.214 4.304-.014 8.608.022 12.912-.018-.528 4.752-1.162 9.494-1.752 14.238-3.72-.004-7.44.006-11.16-.004-.002 11.926.002 23.852-.002 35.78H11.682c-.134-4.194-.018-8.392-.064-12.588.044-1.466.086-2.934.006-4.4.032-6.26-.026-12.52.036-18.778-3.886-.024-7.772-.002-11.658-.01C0 39.48-.002 34.738.004 29.994c3.868.024 7.736-.002 11.604.016.05-2.466.012-4.938.012-7.406.044-3.282-.12-6.622.71-9.83.856-3.662 2.86-7.124 5.906-9.386C21.386 1.002 25.396.016 29.3 0z" ></path>
  </symbol>
  <symbol  xmlns="http://www.w3.org/2000/svg" viewBox="0 0 80 80" id="instagram">
    <path d="M21.728 0h36.478c5.262.214 10.424 2.32 14.306 5.882 4.268 3.854 6.974 9.388 7.38 15.126.126 1.914-.046 3.838.108 5.752v30.206c-.072 2.776-.468 5.566-1.462 8.17-2.124 5.796-6.722 10.622-12.414 13.014-2.838 1.244-5.938 1.762-9.02 1.85H22.982c-2.496-.076-5.004-.392-7.378-1.196C9.45 76.786 4.276 71.992 1.8 66.006.63 63.288.13 60.336 0 57.394V22.85l.102-1.668c.336-5.518 2.8-10.872 6.774-14.716C10.812 2.584 16.202.236 21.728 0zm42.95 11.912c-1.946.49-3.238 2.748-2.604 4.668.508 1.904 2.732 3.168 4.62 2.532 1.916-.532 3.126-2.788 2.488-4.678-.518-1.852-2.65-3.084-4.504-2.522zM36.69 15.35c-6.47.878-12.486 4.568-16.242 9.902a23.917 23.917 0 00-4.408 14.562c.138 5.968 2.654 11.834 6.848 16.078 3.874 3.988 9.182 6.554 14.716 7.098 4.646.48 9.422-.466 13.55-2.644 5.138-2.698 9.222-7.324 11.27-12.754 2.03-5.322 2.06-11.374.086-16.718-1.868-5.122-5.542-9.56-10.228-12.35-4.628-2.804-10.238-3.928-15.592-3.174z" ></path>
    <path d="M37.493 22.73c3.584-.552 7.35.112 10.52 1.876 3.196 1.758 5.768 4.61 7.206 7.96 2.414 5.5 1.508 12.282-2.308 16.93-2.178 2.726-5.24 4.738-8.616 5.626-3.802 1.036-7.972.644-11.51-1.09a16.59 16.59 0 01-7.636-7.574c-2.974-5.844-1.986-13.412 2.41-18.282 2.544-2.894 6.114-4.884 9.934-5.446z" ></path>
  </symbol>
  <symbol  xmlns="http://www.w3.org/2000/svg" viewBox="0 0 80 80" id="twitter">
    <g clip-path="url(#clip0)">
      <path d="M48.114 9.115c3.156-1.6 6.84-2.054 10.31-1.418 3.424.616 6.56 2.424 8.976 4.902 3.628-.802 7.154-2.088 10.362-3.98-1.17 3.782-3.836 6.966-7.152 9.072 3.22-.494 6.43-1.258 9.39-2.642v.068c-.906 1.184-1.734 2.432-2.762 3.516-1.578 1.9-3.504 3.458-5.426 4.986.482 11.892-3.76 23.872-11.456 32.936-4.474 5.286-10.186 9.53-16.578 12.208-5.548 2.342-11.564 3.516-17.58 3.602-9.162.216-18.408-2.286-26.094-7.304 2.486.25 4.994.262 7.48-.022 6.032-.64 11.856-3.032 16.638-6.76-3.18-.118-6.34-1.104-8.948-2.944-2.97-2.038-5.192-5.08-6.35-8.482 2.428.404 4.954.358 7.338-.276-2.974-.67-5.792-2.11-7.978-4.25a16.392 16.392 0 01-4.812-8.904c-.228-1.034-.182-2.098-.308-3.144 2.292 1.202 4.832 1.95 7.43 2.02-4.016-2.726-6.762-7.256-7.176-12.106-.354-3.4.506-6.848 2.16-9.82A46.488 46.488 0 0021.576 23.02c5.546 2.702 11.652 4.2 17.808 4.528-.608-3.044-.5-6.27.558-9.206 1.392-3.98 4.384-7.37 8.172-9.226z" ></path>
    </g>
    <defs>
      <clipPath id="clip0">
        <path fill="#fff" d="M0 0h80v80H0z"></path>
      </clipPath>
    </defs>
  </symbol>
  <symbol  xmlns="http://www.w3.org/2000/svg" viewBox="0 0 80 80" id="vk">
    <path d="M27.83 18.446c1.374-1.008 3.128-1.114 4.76-1.308 2.602-.172 5.214-.154 7.818-.074 1.532.082 3.104.212 4.536.798.904.356 1.526 1.216 1.716 2.152.378 1.776.204 3.602.19 5.402-.17 2.524-.122 5.056-.186 7.584.038 1.572-.124 3.212.482 4.704.278.662.712 1.362 1.45 1.564.86.046 1.568-.564 2.18-1.09 1.312-1.242 2.374-2.72 3.382-4.21 2.734-4.018 4.956-8.368 6.732-12.886.36-.984 1.158-1.96 2.302-1.93 4.006-.028 8.014-.038 12.022-.068 1.3-.008 2.694-.198 3.898.414.44.198.792.61.818 1.11.144 1.47-.566 2.84-1.188 4.124-1.958 3.708-4.534 7.038-7.068 10.36-1.4 1.866-2.898 3.666-4.114 5.66-.484.838-.886 1.852-.562 2.82.384 1.174 1.356 1.992 2.16 2.876 3.352 3.246 6.938 6.348 9.524 10.276.588.916 1.196 1.88 1.318 2.99v.198c-.058.634-.356 1.246-.89 1.612-.96.674-2.156.948-3.314.956-2.73.018-5.46.058-8.19.086-1.278.008-2.572.2-3.838-.062-1.832-.376-3.454-1.414-4.816-2.662-2.084-1.92-3.754-4.232-5.8-6.188-.844-.762-1.76-1.626-2.958-1.694-1.034.034-1.846.842-2.29 1.716-.92 1.834-1.102 3.918-1.172 5.938-.01.712-.214 1.458-.736 1.968-.754.666-1.792.926-2.782.894-2.91-.05-5.866.192-8.724-.51-5.508-1.07-10.574-3.976-14.538-7.912-2.4-2.366-4.458-5.054-6.404-7.8C8.384 38.764 4.176 30.654.42 22.38c-.344-.822-.748-2.038.074-2.706.73-.476 1.636-.576 2.488-.598 3.548-.016 7.094-.042 10.64-.052 1.366-.006 2.776.776 3.26 2.1 1.568 3.752 3.352 7.422 5.492 10.884 1.306 2.114 2.624 4.252 4.356 6.052.708.67 1.59 1.462 2.648 1.258.956-.22 1.33-1.27 1.572-2.11.766-3.342.634-6.8.494-10.202-.124-1.668-.214-3.46-1.164-4.9-.862-1.208-2.396-1.646-3.788-1.892.162-.758.73-1.334 1.338-1.768z" ></path>
  </symbol>
  <symbol  xmlns="http://www.w3.org/2000/svg" viewBox="0 0 80 80" id="youtube">
    <path d="M34.878 12.118c8.508-.112 17.018.062 25.516.452 3.406.22 6.83.41 10.19 1.042 3.792.712 6.992 3.792 7.822 7.564.778 3.282 1.074 6.658 1.272 10.018.392 6.256.344 12.54-.1 18.792-.182 2.828-.48 5.658-1.072 8.432-.72 4.21-4.38 7.662-8.622 8.142-6.712.998-13.514 1.01-20.28 1.248a432.01 432.01 0 01-29.812-.388c-2.468-.142-4.938-.304-7.394-.602-1.67-.228-3.386-.388-4.942-1.084-2.878-1.218-5.086-3.872-5.78-6.918C.916 55.464.606 52.03.42 48.604c-.454-6.658-.342-13.348.19-19.998.202-2.488.508-4.974 1.062-7.41.74-3.254 3.198-6.058 6.328-7.216 1.272-.49 2.642-.614 3.982-.802 5.848-.678 11.738-.802 17.616-.958 1.758-.092 3.52-.062 5.28-.102zm-2.766 39.854c6.848-4.01 13.75-7.932 20.628-11.892l.024-.156c-6.888-3.96-13.794-7.894-20.654-11.902-.036 7.982-.04 15.968.002 23.95z" ></path>
  </symbol>
  <symbol xmlns="http://www.w3.org/2000/svg" viewBox="0 0 24 24" id="telegram">
    <path d="M22.182 2.203c.325-.136.685-.247 1.039-.161.331.07.598.34.697.66.138.434.066.896-.03 1.33-1.186 5.535-2.365 11.072-3.55 16.608-.09.423-.223.884-.579 1.162-.305.243-.734.216-1.08.082-.34-.11-.607-.353-.893-.555a5905.663 5905.663 0 00-4.995-3.653c-.955.915-1.912 1.83-2.871 2.74-.238.233-.57.339-.897.342.123-1.86.268-3.717.39-5.576 3.365-3.02 6.73-6.036 10.094-9.055.093-.086.195-.167.267-.273.037-.078.042-.206-.056-.24-.24-.086-.5.016-.708.139-4.234 2.645-8.466 5.292-12.7 7.935-1.817-.567-3.636-1.129-5.453-1.695-.346-.115-.756-.29-.857-.68v-.123c.124-.5.654-.73 1.084-.917 7.032-2.692 14.066-5.38 21.098-8.07z"></path>
  </symbol>
</svg>