<svg width="24" height="24" viewBox="0 0 24 24" fill="none" xmlns="http://www.w3.org/2000/svg">
<path d="M14.7763 0H14.9245C15.9559 0.0132 16.9873 0.0528 18.0127 0.1656C18.0139 1.4388 18.0139 2.712 18.0133 3.9846C17.2087 3.9864 16.4041 3.9774 15.6001 3.9894C15.0925 4.0134 14.5345 4.1274 14.1811 4.5234C13.8391 4.9062 13.7761 5.445 13.7659 5.937C13.7629 6.9588 13.7635 7.98 13.7653 9.0012C15.0565 8.997 16.3477 9.0078 17.6389 8.9958C17.4805 10.4214 17.2903 11.844 17.1133 13.2672C15.9973 13.266 14.8813 13.269 13.7653 13.266C13.7647 16.8438 13.7659 20.4216 13.7647 24H9.49093C9.45073 22.7418 9.48553 21.4824 9.47173 20.2236C9.48493 19.7838 9.49753 19.3434 9.47353 18.9036C9.48313 17.0256 9.46573 15.1476 9.48433 13.2702C8.31853 13.263 7.15273 13.2696 5.98693 13.2672C5.98633 11.844 5.98573 10.4214 5.98753 8.9982C7.14793 9.0054 8.30833 8.9976 9.46873 9.003C9.48373 8.2632 9.47233 7.5216 9.47233 6.7812C9.48553 5.7966 9.43633 4.7946 9.68533 3.8322C9.94213 2.7336 10.5433 1.695 11.4571 1.0164C12.4021 0.3006 13.6051 0.0048 14.7763 0Z" fill="#2C42BF"/>
</svg>
