<svg width="24" height="24" viewBox="0 0 24 24" fill="none" xmlns="http://www.w3.org/2000/svg">
<path d="M6.5184 0H17.4618C19.0404 0.0642 20.589 0.696 21.7536 1.7646C23.034 2.9208 23.8458 4.581 23.9676 6.3024C24.0054 6.8766 23.9538 7.4538 24 8.028V17.0898C23.9784 17.9226 23.8596 18.7596 23.5614 19.5408C22.9242 21.2796 21.5448 22.7274 19.8372 23.445C18.9858 23.8182 18.0558 23.9736 17.1312 24H6.8946C6.1458 23.9772 5.3934 23.8824 4.6812 23.6412C2.835 23.0358 1.2828 21.5976 0.54 19.8018C0.189 18.9864 0.039 18.1008 0 17.2182V6.855C0.0078 6.7296 0.0228 6.4794 0.0306 6.3546C0.1314 4.6992 0.8706 3.093 2.0628 1.9398C3.2436 0.7752 4.8606 0.0708 6.5184 0ZM19.4034 3.5736C18.8196 3.7206 18.432 4.398 18.6222 4.974C18.7746 5.5452 19.4418 5.9244 20.0082 5.7336C20.583 5.574 20.946 4.8972 20.7546 4.3302C20.5992 3.7746 19.9596 3.405 19.4034 3.5736ZM11.007 4.605C9.066 4.8684 7.2612 5.9754 6.1344 7.5756C5.2338 8.8362 4.7616 10.3956 4.812 11.9442C4.8534 13.7346 5.6082 15.4944 6.8664 16.7676C8.0286 17.964 9.621 18.7338 11.2812 18.897C12.675 19.041 14.1078 18.7572 15.3462 18.1038C16.8876 17.2944 18.1128 15.9066 18.7272 14.2776C19.3362 12.681 19.3452 10.8654 18.753 9.2622C18.1926 7.7256 17.0904 6.3942 15.6846 5.5572C14.2962 4.716 12.6132 4.3788 11.007 4.605Z" fill="#2C42BF"/>
<path d="M11.2478 6.819C12.323 6.6534 13.4528 6.8526 14.4038 7.3818C15.3626 7.9092 16.1342 8.7648 16.5656 9.76981C17.2898 11.4198 17.018 13.4544 15.8732 14.8488C15.2198 15.6666 14.3012 16.2702 13.2884 16.5366C12.1478 16.8474 10.8968 16.7298 9.83544 16.2096C8.84724 15.735 8.02824 14.9208 7.54464 13.9374C6.65244 12.1842 6.94884 9.91381 8.26764 8.4528C9.03084 7.5846 10.1018 6.9876 11.2478 6.819Z" fill="#2C42BF"/>
</svg>
