<svg width="24" height="24" viewBox="0 0 24 24" fill="none" xmlns="http://www.w3.org/2000/svg">
<path d="M22.182 2.20268C22.5072 2.06708 22.8672 1.95608 23.2206 2.04188C23.5524 2.11208 23.8188 2.38268 23.9178 2.70248C24.0558 3.13568 23.9838 3.59828 23.8878 4.03208C22.7022 9.56708 21.5226 15.1039 20.3382 20.6395C20.2482 21.0631 20.115 21.5239 19.7592 21.8023C19.4538 22.0453 19.0248 22.0177 18.6786 21.8845C18.3396 21.7735 18.072 21.5311 17.7858 21.3295C16.1214 20.1109 14.457 18.8929 12.7914 17.6761C11.8356 18.5911 10.8792 19.5055 9.9198 20.4169C9.6816 20.6491 9.3504 20.7547 9.0228 20.7577C9.1458 18.8989 9.291 17.0407 9.4134 15.1819C12.7776 12.1627 16.1436 9.14648 19.5072 6.12728C19.6002 6.04088 19.7016 5.95988 19.7736 5.85428C19.8108 5.77628 19.8162 5.64788 19.7178 5.61368C19.4778 5.52848 19.2186 5.63048 19.0098 5.75288C14.7762 8.39768 10.5444 11.0449 6.3102 13.6885C4.4928 13.1215 2.6742 12.5593 0.8568 11.9935C0.5106 11.8777 0.1008 11.7025 0 11.3131V11.1895C0.1242 10.6891 0.654 10.4593 1.0842 10.2727C8.1162 7.58108 15.15 4.89368 22.182 2.20268Z" fill="#2C42BF"/>
</svg>
