<svg width="24" height="24" viewBox="0 0 24 24" fill="none" xmlns="http://www.w3.org/2000/svg">
<path d="M14.4342 2.73456C15.381 2.25456 16.4862 2.11836 17.5272 2.30916C18.5544 2.49396 19.4952 3.03636 20.22 3.77976C21.3084 3.53916 22.3662 3.15336 23.3286 2.58576C22.9776 3.72036 22.1778 4.67556 21.183 5.30736C22.149 5.15916 23.112 4.92996 24 4.51476V4.53516C23.7282 4.89036 23.4798 5.26476 23.1714 5.58996C22.698 6.15996 22.1202 6.62736 21.5436 7.08576C21.6882 10.6534 20.4156 14.2474 18.1068 16.9666C16.7646 18.5524 15.051 19.8256 13.1334 20.629C11.469 21.3316 9.66424 21.6838 7.85944 21.7096C5.11084 21.7744 2.33705 21.0238 0.03125 19.5184C0.777049 19.5934 1.52945 19.597 2.27525 19.5118C4.08485 19.3198 5.83204 18.6022 7.26664 17.4838C6.31264 17.4484 5.36464 17.1526 4.58225 16.6006C3.69125 15.9892 3.02465 15.0766 2.67725 14.056C3.40565 14.1772 4.16345 14.1634 4.87864 13.9732C3.98645 13.7722 3.14105 13.3402 2.48525 12.6982C1.73705 11.9902 1.22645 11.0398 1.04165 10.027C0.973249 9.71676 0.987049 9.39756 0.949249 9.08376C1.63685 9.44436 2.39885 9.66876 3.17825 9.68976C1.97345 8.87196 1.14965 7.51296 1.02545 6.05796C0.919249 5.03796 1.17725 4.00356 1.67345 3.11196C2.96645 4.71036 4.61824 6.01776 6.47284 6.90576C8.13664 7.71636 9.96844 8.16576 11.8152 8.26416C11.6328 7.35096 11.6652 6.38316 11.9826 5.50236C12.4002 4.30836 13.2978 3.29136 14.4342 2.73456Z" fill="#2C42BF"/>
</svg>
