<svg width="24" height="24" viewBox="0 0 24 24" fill="none" xmlns="http://www.w3.org/2000/svg">
<path d="M8.3485 5.53377C8.7607 5.23137 9.2869 5.19957 9.7765 5.14137C10.5571 5.08977 11.3407 5.09517 12.1219 5.11917C12.5815 5.14377 13.0531 5.18277 13.4827 5.35857C13.7539 5.46537 13.9405 5.72337 13.9975 6.00417C14.1109 6.53697 14.0587 7.08477 14.0545 7.62477C14.0035 8.38197 14.0179 9.14157 13.9987 9.89997C14.0101 10.3716 13.9615 10.8636 14.1433 11.3112C14.2267 11.5098 14.3569 11.7198 14.5783 11.7804C14.8363 11.7942 15.0487 11.6112 15.2323 11.4534C15.6259 11.0808 15.9445 10.6374 16.2469 10.1904C17.0671 8.98497 17.7337 7.67997 18.2665 6.32457C18.3745 6.02937 18.6139 5.73657 18.9571 5.74557C20.1589 5.73717 21.3613 5.73417 22.5637 5.72517C22.9537 5.72277 23.3719 5.66577 23.7331 5.84937C23.8651 5.90877 23.9707 6.03237 23.9785 6.18237C24.0217 6.62337 23.8087 7.03437 23.6221 7.41957C23.0347 8.53197 22.2619 9.53097 21.5017 10.5276C21.0817 11.0874 20.6323 11.6274 20.2675 12.2256C20.1223 12.477 20.0017 12.7812 20.0989 13.0716C20.2141 13.4238 20.5057 13.6692 20.7469 13.9344C21.7525 14.9082 22.8283 15.8388 23.6041 17.0172C23.7805 17.292 23.9629 17.5812 23.9995 17.9142V17.9736C23.9821 18.1638 23.8927 18.3474 23.7325 18.4572C23.4445 18.6594 23.0857 18.7416 22.7383 18.744C21.9193 18.7494 21.1003 18.7614 20.2813 18.7698C19.8979 18.7722 19.5097 18.8298 19.1299 18.7512C18.5803 18.6384 18.0937 18.327 17.6851 17.9526C17.0599 17.3766 16.5589 16.683 15.9451 16.0962C15.6919 15.8676 15.4171 15.6084 15.0577 15.588C14.7475 15.5982 14.5039 15.8406 14.3707 16.1028C14.0947 16.653 14.0401 17.2782 14.0191 17.8842C14.0161 18.0978 13.9549 18.3216 13.7983 18.4746C13.5721 18.6744 13.2607 18.7524 12.9637 18.7428C12.0907 18.7278 11.2039 18.8004 10.3465 18.5898C8.6941 18.2688 7.1743 17.397 5.9851 16.2162C5.2651 15.5064 4.6477 14.7 4.0639 13.8762C2.51471 11.6292 1.25231 9.19617 0.125509 6.71397C0.0223087 6.46737 -0.0988912 6.10257 0.147709 5.90217C0.366708 5.75937 0.638508 5.72937 0.894108 5.72277C1.95851 5.71797 3.02231 5.71017 4.0861 5.70717C4.4959 5.70537 4.9189 5.93997 5.0641 6.33717C5.5345 7.46277 6.0697 8.56377 6.7117 9.60237C7.1035 10.2366 7.4989 10.878 8.0185 11.418C8.2309 11.619 8.4955 11.8566 8.8129 11.7954C9.0997 11.7294 9.2119 11.4144 9.2845 11.1624C9.5143 10.1598 9.4747 9.12237 9.4327 8.10177C9.3955 7.60137 9.3685 7.06377 9.0835 6.63177C8.8249 6.26937 8.3647 6.13797 7.9471 6.06417C7.9957 5.83677 8.1661 5.66397 8.3485 5.53377Z" fill="#2C42BF"/>
</svg>
