<svg width="24" height="24" viewBox="0 0 24 24" fill="none" xmlns="http://www.w3.org/2000/svg">
<path d="M10.4634 3.63552C13.0158 3.60192 15.5688 3.65412 18.1182 3.77112C19.14 3.83712 20.1672 3.89412 21.1752 4.08372C22.3128 4.29732 23.2728 5.22132 23.5218 6.35292C23.7552 7.33752 23.844 8.35032 23.9034 9.35832C24.021 11.2351 24.0066 13.1203 23.8734 14.9959C23.8188 15.8443 23.7294 16.6933 23.5518 17.5255C23.3358 18.7885 22.2378 19.8241 20.9652 19.9681C18.9516 20.2675 16.911 20.2711 14.8812 20.3425C11.8998 20.4061 8.91602 20.3683 5.93762 20.2261C5.19722 20.1835 4.45622 20.1349 3.71942 20.0455C3.21842 19.9771 2.70362 19.9291 2.23682 19.7203C1.37342 19.3549 0.711023 18.5587 0.502823 17.6449C0.274823 16.6393 0.181823 15.6091 0.126023 14.5813C-0.0101772 12.5839 0.0234228 10.5769 0.183023 8.58192C0.243623 7.83552 0.335423 7.08972 0.501623 6.35892C0.723623 5.38272 1.46102 4.54152 2.40002 4.19412C2.78162 4.04712 3.19262 4.00992 3.59462 3.95352C5.34902 3.75012 7.11602 3.71292 8.87942 3.66612C9.40682 3.63852 9.93542 3.64752 10.4634 3.63552ZM9.63362 15.5917C11.688 14.3887 13.7586 13.2121 15.822 12.0241C15.8238 12.0127 15.8274 11.9893 15.8292 11.9773C13.7628 10.7893 11.691 9.60912 9.63302 8.40672C9.62222 10.8013 9.62102 13.1971 9.63362 15.5917Z" fill="#2C42BF"/>
</svg>
